<svg xmlns="http://www.w3.org/2000/svg" width="17.5" height="14" viewBox="0 0 17.5 14">
  <g id="MENU" transform="translate(-33 -616)">
    <g id="noun_menu_1108888" transform="translate(23 598)">
      <g id="Group_210" data-name="Group 210" transform="translate(10 18)">
        <path id="Path_1781" data-name="Path 1781" d="M26.406,970.362a1.094,1.094,0,0,1,0,2.188H11.094a1.094,1.094,0,0,1,0-2.187Zm-16.406,7Zm16.406,4.813a1.094,1.094,0,0,1,0,2.188H11.094a1.094,1.094,0,0,1,0-2.187Z" transform="translate(-10 -970.362)" fill="#000"/>
      </g>
    </g>
    <g id="Path_1805" data-name="Path 1805" transform="translate(33 622)" fill="#000">
      <path d="M 14 1.75 L 1 1.75 C 0.5864499807357788 1.75 0.25 1.413550019264221 0.25 1 C 0.25 0.5864499807357788 0.5864499807357788 0.25 1 0.25 L 14 0.25 C 14.41355037689209 0.25 14.75 0.5864499807357788 14.75 1 C 14.75 1.413550019264221 14.41355037689209 1.75 14 1.75 Z" stroke="none"/>
      <path d="M 1 0.5 C 0.7243003845214844 0.5 0.5 0.7243000268936157 0.5 1 C 0.5 1.275699973106384 0.7243003845214844 1.5 1 1.5 L 14 1.5 C 14.27569961547852 1.5 14.5 1.275699973106384 14.5 1 C 14.5 0.7243000268936157 14.27569961547852 0.5 14 0.5 L 1 0.5 M 1 0 L 14 0 C 14.55228042602539 0 15 0.4477200508117676 15 1 C 15 1.552279949188232 14.55228042602539 2 14 2 L 1 2 C 0.4477100372314453 2 0 1.552279949188232 0 1 C 0 0.4477200508117676 0.4477100372314453 0 1 0 Z" stroke="none" fill="#000"/>
    </g>
  </g>
</svg>
